HIERARCHY
ROOT Hips
{
 OFFSET 0.000000 0.000000 0.000000
 CHANNELS 6 Xposition Yposition Zposition Yrotation Xrotation Zrotation
 JOINT Chest
 {
  OFFSET 0.000000 11.395451 -0.039534
  CHANNELS 3 Yrotation Xrotation Zrotation
  JOINT Chest2
  {
   OFFSET 0.000000 9.398669 0.071813
   CHANNELS 3 Yrotation Xrotation Zrotation
   JOINT Chest3
   {
    OFFSET 0.000000 8.489801 0.000000
    CHANNELS 3 Yrotation Xrotation Zrotation
    JOINT Chest4
    {
     OFFSET 0.000000 8.489801 0.000000
     CHANNELS 3 Yrotation Xrotation Zrotation
     JOINT Neck
     {
      OFFSET 0.000000 12.404889 0.000000
      CHANNELS 3 Yrotation Xrotation Zrotation
      JOINT Head
      {
       OFFSET 0.000000 8.903270 0.092239
       CHANNELS 3 Yrotation Xrotation Zrotation
       End Site
       {
        OFFSET 0.000000 17.592497 0.007158
       }
      }
     }
     JOINT RightCollar
     {
      OFFSET -3.196775 6.966722 0.000000
      CHANNELS 3 Yrotation Xrotation Zrotation
      JOINT RightShoulder
      {
       OFFSET -15.955896 0.000000 0.000000
       CHANNELS 3 Yrotation Xrotation Zrotation
       JOINT RightElbow
       {
        OFFSET -24.792472 0.000000 0.000000
        CHANNELS 3 Yrotation Xrotation Zrotation
        JOINT RightWrist
        {
         OFFSET -20.900115 0.000000 0.025002
         CHANNELS 3 Yrotation Xrotation Zrotation
         End Site
         {
          OFFSET -16.056692 0.000000 0.000000
         }
        }
       }
      }
     }
     JOINT LeftCollar
     {
      OFFSET 3.196775 6.966722 0.000000
      CHANNELS 3 Yrotation Xrotation Zrotation
      JOINT LeftShoulder
      {
       OFFSET 15.955896 0.000000 0.000000
       CHANNELS 3 Yrotation Xrotation Zrotation
       JOINT LeftElbow
       {
        OFFSET 24.792472 0.000000 0.000000
        CHANNELS 3 Yrotation Xrotation Zrotation
        JOINT LeftWrist
        {
         OFFSET 20.900115 0.000000 0.025002
         CHANNELS 3 Yrotation Xrotation Zrotation
         End Site
         {
          OFFSET 16.056692 0.000000 0.000000
         }
        }
       }
      }
     }
    }
   }
  }
 }
 JOINT RightHip
 {
  OFFSET -9.568995 0.193718 0.019767
  CHANNELS 3 Yrotation Xrotation Zrotation
  JOINT RightKnee
  {
   OFFSET 0.000000 -56.649296 0.015402
   CHANNELS 3 Yrotation Xrotation Zrotation
   JOINT RightAnkle
   {
    OFFSET 0.000000 -41.365147 0.021264
    CHANNELS 3 Yrotation Xrotation Zrotation
    JOINT RightToe
    {
     OFFSET 0.000000 -7.465940 17.672538
     CHANNELS 3 Yrotation Xrotation Zrotation
     End Site
     {
      OFFSET 0.000000 -1.736315 7.837145
     }
    }
   }
  }
 }
 JOINT LeftHip
 {
  OFFSET 9.568995 0.193718 0.019767
  CHANNELS 3 Yrotation Xrotation Zrotation
  JOINT LeftKnee
  {
   OFFSET 0.000000 -56.649296 0.015402
   CHANNELS 3 Yrotation Xrotation Zrotation
   JOINT LeftAnkle
   {
    OFFSET 0.000000 -41.365147 0.021264
    CHANNELS 3 Yrotation Xrotation Zrotation
    JOINT LeftToe
    {
     OFFSET 0.000000 -7.465940 17.672538
     CHANNELS 3 Yrotation Xrotation Zrotation
     End Site
     {
      OFFSET 0.000000 -1.736315 7.837145
     }
    }
   }
  }
 }
}
MOTION
Frames: 14
Frame Time: 0.016667
68.461908 104.728137 110.333585 -125.683591 -1.280613 -0.995297 -1.158019 6.686677 1.441618 -0.534577 2.968253 0.656307 -0.534577 2.968253 0.656307 -0.404033 2.225621 0.494719 5.017786 14.488251 -5.011411 11.326574 -8.550914 -11.317029 7.787776 -0.685092 6.647160 5.565448 -20.295837 48.849596 38.185288 -36.388375 33.308422 -13.742380 -14.854924 11.096049 1.627309 8.325466 -6.275008 3.070059 -24.367933 -57.967389 -28.166075 -53.691995 -38.785645 18.294082 -20.290819 1.249660 -3.402890 -16.648313 -9.509412 1.882423 58.746689 5.409785 9.481228 -7.572334 7.691953 -1.145859 -6.483634 -6.211462 6.899540 -3.889038 -10.843137 1.226645 9.901517 0.430351 11.347329 -8.830428 6.358974 0.000000 0.000000 0.000000
67.886314 104.763339 109.872769 -123.309880 -1.276195 -1.014809 -1.319376 6.724222 1.406687 -0.605795 2.984460 0.643223 -0.605813 2.984417 0.643221 -0.457412 2.237653 0.485267 4.912540 14.509028 -4.938437 11.100118 -8.538167 -11.138754 7.762038 -0.855241 6.606425 5.415252 -20.081052 48.857403 38.231913 -36.467195 33.320495 -13.557791 -14.896555 11.138237 1.757801 8.176548 -6.332502 2.764659 -24.477571 -57.867659 -28.356836 -53.604504 -38.667818 18.310284 -20.276953 1.287671 -2.944495 -17.413753 -9.283300 0.587976 57.652418 3.776355 9.241347 -8.180807 6.895118 -0.840556 -5.563452 -4.746274 5.973195 -3.285495 -10.843682 0.714683 9.668661 0.442351 10.297518 -8.805069 6.388162 0.000000 0.000000 0.000000
67.322062 104.793355 109.415466 -120.869618 -1.239072 -1.026642 -1.493262 6.770360 1.372117 -0.682562 3.004536 0.630538 -0.682582 3.004484 0.630532 -0.514935 2.252633 0.476148 4.784955 14.481830 -4.862835 10.837161 -8.616882 -10.953762 7.724402 -1.062127 6.555934 5.292055 -19.849787 48.825925 38.264902 -36.552400 33.390404 -13.349977 -14.943123 11.157650 1.888316 8.008864 -6.398384 2.417687 -24.572023 -57.725756 -28.553300 -53.526465 -38.551739 18.313933 -20.288398 1.305325 -2.608779 -18.137581 -9.048807 -1.004487 56.187566 1.872906 9.213338 -8.777347 5.885646 -0.508050 -4.732711 -3.054260 5.095385 -2.725478 -10.831804 0.159504 9.476098 0.450491 9.172134 -8.784352 6.459231 0.000000 0.000000 0.000000
66.747026 104.822141 108.954931 -118.460511 -1.168606 -1.031470 -1.632588 6.805474 1.339441 -0.743950 3.019935 0.618205 -0.743950 3.019935 0.618205 -0.560891 2.264205 0.467227 4.642997 14.455660 -4.779924 10.544272 -8.696123 -10.749206 7.698379 -1.221660 6.495419 5.168968 -19.637291 48.797548 38.313026 -36.645359 33.433175 -13.134749 -14.994751 11.167543 2.001681 7.844781 -6.465159 2.033325 -24.642417 -57.575888 -28.739185 -53.452024 -38.412564 18.302346 -20.317690 1.315794 -2.238940 -18.760270 -8.850073 -2.138732 54.178153 0.342933 9.402182 -9.150547 5.141802 -0.255333 -3.925168 -1.653430 4.166640 -2.229111 -10.799892 -0.392372 9.329976 0.445494 8.125658 -8.789478 6.547403 0.000000 -0.000000 0.000000
66.159198 104.849986 108.488669 -116.097115 -1.057312 -1.028385 -1.722859 6.820067 1.308282 -0.783555 3.026296 0.605765 -0.783543 3.026307 0.605768 -0.590516 2.268967 0.458106 4.485419 14.445805 -4.682460 10.214494 -8.748618 -10.509151 7.689764 -1.283951 6.422300 5.034307 -19.469904 48.789731 38.389219 -36.748531 33.419962 -12.906696 -15.056358 11.168383 2.085400 7.698883 -6.529756 1.584855 -24.683150 -57.412709 -28.924746 -53.382103 -38.221132 18.267065 -20.375720 1.317391 -1.846903 -19.267374 -8.667895 -2.878008 51.497403 -0.930357 9.935121 -9.254551 4.861082 -0.105481 -3.006771 -0.725698 3.161976 -1.812435 -10.745456 -0.952034 9.237837 0.423466 7.180191 -8.820392 6.661871 0.000000 -0.000000 0.000000
65.560586 104.876601 108.019174 -113.764912 -0.913610 -1.014027 -1.778763 6.823616 1.277388 -0.807921 3.027780 0.592885 -0.807915 3.027759 0.592884 -0.608732 2.270029 0.448565 4.314036 14.436417 -4.576811 9.855444 -8.802120 -10.248435 7.694222 -1.298275 6.345326 4.899767 -19.321707 48.783160 38.479799 -36.858194 33.379002 -12.671050 -15.122562 11.159321 2.152317 7.557038 -6.594345 1.099512 -24.698512 -57.239445 -29.104589 -53.315237 -38.002145 18.218168 -20.452944 1.311603 -1.423541 -19.671053 -8.506062 -3.244172 48.285290 -1.976240 10.650578 -9.203670 4.918187 -0.012753 -2.055032 -0.074246 2.107138 -1.460787 -10.676398 -1.508390 9.192487 0.390985 6.313587 -8.877867 6.794754 0.000000 0.000000 0.000000
64.935082 104.905063 107.547187 -111.517944 -0.760784 -0.987124 -1.797038 6.824962 1.246178 -0.815581 3.028481 0.579316 -0.815581 3.028481 0.579316 -0.614417 2.270595 0.438431 4.142705 14.429804 -4.476461 9.497837 -8.848716 -9.997074 7.720515 -1.330860 6.281597 4.773812 -19.150716 48.765266 38.570052 -36.966135 33.312750 -12.459678 -15.179294 11.153329 2.223468 7.397998 -6.659032 0.662807 -24.693183 -57.103236 -29.240854 -53.241127 -37.809019 18.178876 -20.509745 1.316030 -0.780432 -19.944133 -8.440197 -2.695828 44.774976 -2.282282 11.094384 -9.017362 5.280653 0.039309 -1.283844 0.336590 0.978899 -1.147754 -10.604155 -1.981676 9.178798 0.354622 5.613739 -8.984872 6.895568 0.000000 0.000000 0.000000
64.279531 104.941955 107.067893 -109.386059 -0.605912 -0.947574 -1.766215 6.823384 1.213696 -0.801409 3.028054 0.564457 -0.801399 3.028096 0.564463 -0.603703 2.270367 0.427226 3.977450 14.437478 -4.385735 9.153371 -8.866002 -9.764060 7.772745 -1.417593 6.238626 4.662859 -18.913189 48.728706 38.642559 -37.073829 33.220010 -12.273547 -15.225785 11.158302 2.314333 7.189042 -6.724833 0.283875 -24.641481 -57.012898 -29.302400 -53.146565 -37.657183 18.151451 -20.530793 1.332733 0.274170 -20.043907 -8.495496 -0.966003 40.923784 -1.670246 10.881137 -8.704810 6.024356 0.039634 -0.738243 0.386991 -0.227204 -0.865004 -10.530902 -2.349527 9.185215 0.312303 5.147204 -9.145742 6.944735 0.000000 0.000000 0.000000
63.597088 104.980696 106.586106 -107.339280 -0.442970 -0.895464 -1.697839 6.819739 1.180308 -0.770572 3.026704 0.548622 -0.770560 3.026727 0.548625 -0.580497 2.269375 0.415194 3.812582 14.448386 -4.299602 8.810978 -8.875821 -9.539330 7.846289 -1.524926 6.204881 4.559368 -18.651602 48.685063 38.712219 -37.180438 33.104035 -12.112093 -15.264082 11.168017 2.408342 6.962574 -6.794290 -0.045835 -24.568273 -56.957126 -29.324302 -53.043066 -37.525579 18.131870 -20.530283 1.359062 1.541414 -19.998041 -8.625761 1.261430 36.685367 -0.812839 10.359826 -8.278111 7.034240 0.012432 -0.304606 0.165384 -1.506624 -0.620659 -10.457911 -2.634649 9.224141 0.266206 4.847606 -9.356255 6.959732 0.000000 0.000000 0.000000
62.881117 105.004617 106.117006 -105.341885 -0.275573 -0.831519 -1.623040 6.825061 1.148611 -0.736953 3.029335 0.533469 -0.736953 3.029335 0.533469 -0.555233 2.271364 0.403665 3.643473 14.431527 -4.219048 8.465817 -8.935930 -9.326400 7.936546 -1.615177 6.167336 4.451357 -18.453507 48.646951 38.812687 -37.273550 32.973366 -12.005987 -15.286457 11.176345 2.479673 6.795068 -6.866197 -0.268034 -24.554637 -56.955817 -29.362794 -52.958150 -37.417690 18.131761 -20.511043 1.406185 2.625104 -19.883445 -8.803380 3.181099 32.323812 -0.338919 10.212873 -7.735681 8.015111 0.000000 0.000000 0.000000 -2.869332 -0.412321 -10.394968 -2.824885 9.316684 0.228798 4.603288 -9.626473 6.945751 0.000000 0.000000 0.000000
62.132127 105.008886 105.672339 -103.384089 -0.077643 -0.743537 -1.552587 6.833286 1.116013 -0.705209 3.033279 0.517994 -0.705193 3.033283 0.517991 -0.531334 2.274373 0.391904 3.469988 14.370607 -4.148934 8.120901 -9.076030 -9.135774 8.047933 -1.680850 6.121026 4.319157 -18.348255 48.610064 38.958815 -37.335530 32.843971 -11.980371 -15.297518 11.182290 2.528300 6.728833 -6.935450 -0.337352 -24.646668 -57.039082 -29.435473 -52.910341 -37.350180 18.171243 -20.454780 1.492059 3.195304 -19.740125 -8.975069 4.874854 27.795771 -0.365293 10.872327 -6.936114 9.011984 0.001663 0.098476 -0.008466 -4.390428 -0.277284 -10.357766 -2.887618 9.454990 0.198254 4.426488 -9.951723 6.886699 0.000000 -0.000000 0.000000
61.349609 104.998336 105.240359 -101.475453 0.123461 -0.642752 -1.475700 6.850347 1.085703 -0.670657 3.041138 0.503461 -0.670622 3.041138 0.503457 -0.505332 2.280307 0.380840 3.290524 14.282713 -4.087400 7.770367 -9.265020 -8.961139 8.176463 -1.729421 6.072746 4.183118 -18.306391 48.570660 39.134843 -37.381358 32.698351 -12.012115 -15.297078 11.191356 2.557157 6.721624 -6.998448 -0.299121 -24.796641 -57.184041 -29.516030 -52.882221 -37.314152 18.226281 -20.376681 1.600389 3.577987 -19.528037 -9.186199 6.420742 23.179456 -0.613540 11.906906 -6.093516 10.144690 0.001139 0.049438 -0.001916 -5.995017 -0.178267 -10.331094 -2.855712 9.647390 0.176024 4.305328 -10.336140 6.797217 0.000000 -0.000000 -0.000000
60.525400 104.970802 104.801010 -99.609665 0.245900 -0.569196 -1.390862 6.904332 1.071304 -0.632970 3.065375 0.495972 -0.632970 3.065375 0.495972 -0.477104 2.298523 0.375068 3.097960 14.186862 -4.025841 7.395436 -9.469363 -8.781429 8.305495 -1.745144 6.030458 4.092479 -18.328666 48.536348 39.329188 -37.446501 32.493734 -12.060092 -15.269979 11.206313 2.545529 6.723329 -7.054054 -0.231800 -24.946809 -57.331036 -29.594116 -52.848122 -37.276321 18.245116 -20.331767 1.690166 4.360848 -19.197023 -9.558775 7.183231 18.947826 -0.825789 12.723647 -5.659610 11.157656 0.000000 0.000000 0.000000 -7.467980 0.000178 -10.280593 -2.814810 9.938801 0.181327 4.091683 -10.803621 6.731383 0.000000 -0.000000 -0.000000
59.667159 104.925103 104.355751 -97.791581 0.261200 -0.546852 -1.289876 7.022029 1.086701 -0.588728 3.117898 0.501604 -0.588784 3.117911 0.501613 -0.444079 2.337963 0.379132 2.882155 14.065242 -3.968783 6.980471 -9.722502 -8.602812 8.437626 -1.712320 5.985355 4.080524 -18.431792 48.493720 39.576115 -37.566554 32.181427 -12.115790 -15.214349 11.232026 2.472158 6.716199 -7.108650 -0.151792 -25.103384 -57.460411 -29.680027 -52.790479 -37.226746 18.210975 -20.352234 1.736892 6.308536 -18.629110 -10.373522 6.550652 15.124935 -0.699001 12.968541 -5.751366 11.672408 0.000000 0.000000 0.000000 -8.723342 0.313817 -10.196634 -2.786243 10.306720 0.231755 3.704660 -11.352657 6.735479 0.000000 -0.000000 -0.000000
